<svg width="129" height="26" viewBox="0 0 129 26" fill="none" xmlns="http://www.w3.org/2000/svg">
<path d="M1.475 20C1.19167 20 0.958334 19.9083 0.775 19.725C0.591667 19.5417 0.5 19.3083 0.5 19.025V1.45C0.5 1.16667 0.591667 0.933332 0.775 0.749999C0.958334 0.566666 1.19167 0.475 1.475 0.475H5.975C7.40833 0.475 8.71667 0.716666 9.9 1.2C11.1 1.66667 12.1333 2.34167 13 3.225C13.8667 4.09167 14.5333 5.11667 15 6.3C15.4833 7.48333 15.725 8.79167 15.725 10.225C15.725 11.6583 15.4833 12.975 15 14.175C14.5333 15.3583 13.8667 16.3917 13 17.275C12.1333 18.1417 11.1 18.8167 9.9 19.3C8.71667 19.7667 7.40833 20 5.975 20H1.475ZM2.45 18.25H5.975C7.50833 18.25 8.85833 17.9083 10.025 17.225C11.2083 16.525 12.1333 15.575 12.8 14.375C13.4667 13.1583 13.8 11.775 13.8 10.225C13.8 8.675 13.4667 7.3 12.8 6.1C12.1333 4.88333 11.2083 3.93333 10.025 3.25C8.85833 2.56667 7.50833 2.225 5.975 2.225H2.45V18.25ZM25.6883 20.125C24.3383 20.125 23.1383 19.8333 22.0883 19.25C21.0549 18.65 20.2383 17.825 19.6383 16.775C19.0549 15.725 18.7633 14.525 18.7633 13.175C18.7633 11.8083 19.0383 10.6083 19.5883 9.575C20.1549 8.525 20.9299 7.7 21.9133 7.1C22.8966 6.5 24.0299 6.2 25.3133 6.2C26.5799 6.2 27.6799 6.49167 28.6133 7.075C29.5633 7.64167 30.2966 8.43333 30.8133 9.45C31.3299 10.4667 31.5883 11.625 31.5883 12.925C31.5883 13.1917 31.5049 13.4083 31.3383 13.575C31.1716 13.725 30.9549 13.8 30.6883 13.8H20.0633V12.2H30.8883L29.8133 12.975C29.8299 12.0083 29.6549 11.1417 29.2883 10.375C28.9216 9.60833 28.3966 9.00833 27.7133 8.575C27.0466 8.14167 26.2466 7.925 25.3133 7.925C24.3633 7.925 23.5299 8.15 22.8133 8.6C22.0966 9.05 21.5383 9.675 21.1383 10.475C20.7549 11.2583 20.5633 12.1583 20.5633 13.175C20.5633 14.1917 20.7799 15.0917 21.2133 15.875C21.6633 16.6583 22.2716 17.275 23.0383 17.725C23.8049 18.175 24.6883 18.4 25.6883 18.4C26.2883 18.4 26.8883 18.3 27.4883 18.1C28.1049 17.8833 28.5966 17.6167 28.9633 17.3C29.1466 17.15 29.3549 17.075 29.5883 17.075C29.8216 17.0583 30.0216 17.1167 30.1883 17.25C30.4049 17.45 30.5133 17.6667 30.5133 17.9C30.5299 18.1333 30.4383 18.3333 30.2383 18.5C29.6883 18.9667 28.9883 19.3583 28.1383 19.675C27.2883 19.975 26.4716 20.125 25.6883 20.125ZM39.0314 20C38.6314 20 38.3314 19.7833 38.1314 19.35L32.5814 7.575C32.4814 7.35833 32.4731 7.14167 32.5564 6.925C32.6398 6.70833 32.8064 6.54167 33.0564 6.425C33.2898 6.30833 33.5148 6.29167 33.7314 6.375C33.9481 6.45833 34.1148 6.60833 34.2314 6.825L39.5564 18.35H38.5314L43.7814 6.825C43.8814 6.59167 44.0481 6.44167 44.2814 6.375C44.5314 6.29167 44.7731 6.3 45.0064 6.4C45.2398 6.51667 45.3981 6.69167 45.4814 6.925C45.5648 7.14167 45.5564 7.35 45.4564 7.55L39.9814 19.35C39.7814 19.7833 39.4648 20 39.0314 20ZM49.5498 20C49.2498 20 49.0081 19.9167 48.8248 19.75C48.6581 19.5667 48.5748 19.325 48.5748 19.025V7.3C48.5748 7 48.6581 6.76667 48.8248 6.6C49.0081 6.41667 49.2498 6.325 49.5498 6.325C49.8331 6.325 50.0581 6.41667 50.2248 6.6C50.4081 6.76667 50.4998 7 50.4998 7.3V19.025C50.4998 19.325 50.4081 19.5667 50.2248 19.75C50.0581 19.9167 49.8331 20 49.5498 20ZM49.5248 3.725C49.1581 3.725 48.8415 3.59167 48.5748 3.325C48.3081 3.05833 48.1748 2.73333 48.1748 2.35C48.1748 1.93333 48.3081 1.60833 48.5748 1.375C48.8581 1.125 49.1831 0.999999 49.5498 0.999999C49.8998 0.999999 50.2081 1.125 50.4748 1.375C50.7581 1.60833 50.8998 1.93333 50.8998 2.35C50.8998 2.73333 50.7665 3.05833 50.4998 3.325C50.2331 3.59167 49.9081 3.725 49.5248 3.725ZM61.4264 20.125C60.1097 20.125 58.943 19.8333 57.9264 19.25C56.9097 18.65 56.1097 17.825 55.5264 16.775C54.9597 15.725 54.6764 14.525 54.6764 13.175C54.6764 11.8083 54.9764 10.6 55.5764 9.55C56.1764 8.5 57.0014 7.68333 58.0514 7.1C59.1014 6.5 60.293 6.2 61.6264 6.2C62.9764 6.2 64.168 6.5 65.2014 7.1C66.2514 7.68333 67.068 8.5 67.6514 9.55C68.2514 10.6 68.5597 11.8083 68.5764 13.175L67.4514 13.775C67.4514 15.0083 67.193 16.1083 66.6764 17.075C66.1597 18.025 65.443 18.775 64.5264 19.325C63.6264 19.8583 62.593 20.125 61.4264 20.125ZM61.6764 25.4C60.3597 25.4 59.2014 25.15 58.2014 24.65C57.2014 24.1667 56.3764 23.5 55.7264 22.65C55.543 22.45 55.4597 22.2333 55.4764 22C55.5097 21.7667 55.6347 21.575 55.8514 21.425C56.068 21.275 56.3097 21.225 56.5764 21.275C56.843 21.325 57.0514 21.45 57.2014 21.65C57.6847 22.25 58.3014 22.7333 59.0514 23.1C59.818 23.4667 60.7014 23.65 61.7014 23.65C62.6347 23.65 63.4764 23.425 64.2264 22.975C64.9764 22.525 65.568 21.8917 66.0014 21.075C66.4514 20.2583 66.6764 19.3 66.6764 18.2V14.4L67.4014 12.95L68.5764 13.175V18.275C68.5764 19.625 68.2764 20.8333 67.6764 21.9C67.0764 22.9833 66.2597 23.8333 65.2264 24.45C64.193 25.0833 63.0097 25.4 61.6764 25.4ZM61.6264 18.375C62.6097 18.375 63.4764 18.1583 64.2264 17.725C64.993 17.275 65.593 16.6583 66.0264 15.875C66.4597 15.0917 66.6764 14.1917 66.6764 13.175C66.6764 12.1583 66.4597 11.2583 66.0264 10.475C65.593 9.675 64.993 9.05833 64.2264 8.625C63.4764 8.175 62.6097 7.95 61.6264 7.95C60.643 7.95 59.768 8.175 59.0014 8.625C58.2347 9.05833 57.6347 9.675 57.2014 10.475C56.768 11.2583 56.5514 12.1583 56.5514 13.175C56.5514 14.1917 56.768 15.0917 57.2014 15.875C57.6347 16.6583 58.2347 17.275 59.0014 17.725C59.768 18.1583 60.643 18.375 61.6264 18.375ZM84.0453 20C83.762 20 83.5286 19.9083 83.3453 19.725C83.162 19.5417 83.0703 19.3167 83.0703 19.05V12.55C83.0703 11.5167 82.8703 10.6667 82.4703 10C82.087 9.33333 81.5536 8.83333 80.8703 8.5C80.2036 8.16667 79.4453 8 78.5953 8C77.7786 8 77.037 8.15833 76.3703 8.475C75.7203 8.79167 75.2036 9.225 74.8203 9.775C74.437 10.325 74.2453 10.95 74.2453 11.65H72.8703C72.9036 10.6 73.187 9.66667 73.7203 8.85C74.2536 8.01667 74.962 7.36667 75.8453 6.9C76.7286 6.41667 77.712 6.175 78.7953 6.175C79.9786 6.175 81.037 6.425 81.9703 6.925C82.9036 7.40833 83.637 8.125 84.1703 9.075C84.7203 10.025 84.9953 11.1833 84.9953 12.55V19.05C84.9953 19.3167 84.9036 19.5417 84.7203 19.725C84.537 19.9083 84.312 20 84.0453 20ZM73.2953 20C72.9953 20 72.7536 19.9167 72.5703 19.75C72.4036 19.5667 72.3203 19.3333 72.3203 19.05V7.3C72.3203 7 72.4036 6.76667 72.5703 6.6C72.7536 6.41667 72.9953 6.325 73.2953 6.325C73.5786 6.325 73.8036 6.41667 73.9703 6.6C74.1536 6.76667 74.2453 7 74.2453 7.3V19.05C74.2453 19.3333 74.1536 19.5667 73.9703 19.75C73.8036 19.9167 73.5786 20 73.2953 20ZM94.0143 20.125C93.0309 20.125 92.0559 19.9583 91.0893 19.625C90.1226 19.2917 89.3393 18.7917 88.7393 18.125C88.5559 17.925 88.4809 17.7 88.5143 17.45C88.5476 17.2 88.6726 16.9833 88.8893 16.8C89.1226 16.6333 89.3643 16.5667 89.6143 16.6C89.8643 16.6333 90.0726 16.7417 90.2393 16.925C90.6393 17.3917 91.1643 17.75 91.8143 18C92.4809 18.25 93.2143 18.375 94.0143 18.375C95.2476 18.375 96.1393 18.1667 96.6893 17.75C97.2393 17.3167 97.5226 16.8 97.5393 16.2C97.5393 15.6 97.2559 15.1083 96.6893 14.725C96.1226 14.325 95.1893 14.0167 93.8893 13.8C92.2059 13.5333 90.9726 13.0667 90.1893 12.4C89.4059 11.7333 89.0143 10.9417 89.0143 10.025C89.0143 9.175 89.2393 8.46667 89.6893 7.9C90.1393 7.33333 90.7393 6.90833 91.4893 6.625C92.2393 6.34167 93.0643 6.2 93.9643 6.2C95.0809 6.2 96.0393 6.39167 96.8393 6.775C97.6559 7.15833 98.3143 7.675 98.8143 8.325C98.9809 8.54167 99.0476 8.76667 99.0143 9C98.9809 9.23333 98.8476 9.425 98.6143 9.575C98.4143 9.69167 98.1809 9.73333 97.9143 9.7C97.6643 9.65 97.4476 9.525 97.2643 9.325C96.8476 8.84167 96.3643 8.49167 95.8143 8.275C95.2643 8.04167 94.6309 7.925 93.9143 7.925C92.9976 7.925 92.2643 8.11667 91.7143 8.5C91.1643 8.86667 90.8893 9.33333 90.8893 9.9C90.8893 10.2833 90.9893 10.6167 91.1893 10.9C91.4059 11.1833 91.7643 11.4333 92.2643 11.65C92.7809 11.8667 93.4976 12.05 94.4143 12.2C95.6643 12.4 96.6476 12.7 97.3643 13.1C98.0976 13.4833 98.6143 13.9417 98.9143 14.475C99.2309 14.9917 99.3893 15.5583 99.3893 16.175C99.3893 16.9583 99.1559 17.65 98.6893 18.25C98.2393 18.8333 97.6059 19.2917 96.7893 19.625C95.9893 19.9583 95.0643 20.125 94.0143 20.125ZM103.691 14.425C103.391 14.425 103.149 14.3333 102.966 14.15C102.799 13.9667 102.716 13.7333 102.716 13.45V1.45C102.716 1.15 102.799 0.916665 102.966 0.749999C103.149 0.566666 103.391 0.475 103.691 0.475C103.974 0.475 104.199 0.566666 104.366 0.749999C104.549 0.916665 104.641 1.15 104.641 1.45V13.45C104.641 13.7333 104.549 13.9667 104.366 14.15C104.199 14.3333 103.974 14.425 103.691 14.425ZM114.441 20C114.157 20 113.924 19.9083 113.741 19.725C113.557 19.5417 113.466 19.3167 113.466 19.05V12.55C113.466 11.5167 113.266 10.6667 112.866 10C112.482 9.33333 111.949 8.83333 111.266 8.5C110.599 8.16667 109.841 8 108.991 8C108.174 8 107.432 8.15833 106.766 8.475C106.116 8.79167 105.599 9.225 105.216 9.775C104.832 10.325 104.641 10.95 104.641 11.65H103.266C103.299 10.6 103.582 9.66667 104.116 8.85C104.649 8.01667 105.357 7.36667 106.241 6.9C107.124 6.41667 108.107 6.175 109.191 6.175C110.374 6.175 111.432 6.425 112.366 6.925C113.299 7.40833 114.032 8.125 114.566 9.075C115.116 10.025 115.391 11.1833 115.391 12.55V19.05C115.391 19.3167 115.299 19.5417 115.116 19.725C114.932 19.9083 114.707 20 114.441 20ZM103.691 20C103.391 20 103.149 19.9167 102.966 19.75C102.799 19.5667 102.716 19.3333 102.716 19.05V7.3C102.716 7 102.799 6.76667 102.966 6.6C103.149 6.41667 103.391 6.325 103.691 6.325C103.974 6.325 104.199 6.41667 104.366 6.6C104.549 6.76667 104.641 7 104.641 7.3V19.05C104.641 19.3333 104.549 19.5667 104.366 19.75C104.199 19.9167 103.974 20 103.691 20ZM121.01 20C120.71 20 120.468 19.9167 120.285 19.75C120.118 19.5667 120.035 19.325 120.035 19.025V7.3C120.035 7 120.118 6.76667 120.285 6.6C120.468 6.41667 120.71 6.325 121.01 6.325C121.293 6.325 121.518 6.41667 121.685 6.6C121.868 6.76667 121.96 7 121.96 7.3V19.025C121.96 19.325 121.868 19.5667 121.685 19.75C121.518 19.9167 121.293 20 121.01 20ZM120.985 3.725C120.618 3.725 120.301 3.59167 120.035 3.325C119.768 3.05833 119.635 2.73333 119.635 2.35C119.635 1.93333 119.768 1.60833 120.035 1.375C120.318 1.125 120.643 0.999999 121.01 0.999999C121.36 0.999999 121.668 1.125 121.935 1.375C122.218 1.60833 122.36 1.93333 122.36 2.35C122.36 2.73333 122.226 3.05833 121.96 3.325C121.693 3.59167 121.368 3.725 120.985 3.725ZM127.311 20.4C126.911 20.4 126.57 20.2583 126.286 19.975C126.003 19.6917 125.861 19.35 125.861 18.95C125.861 18.5333 126.003 18.1833 126.286 17.9C126.586 17.6167 126.928 17.475 127.311 17.475C127.711 17.475 128.053 17.625 128.336 17.925C128.62 18.2083 128.761 18.55 128.761 18.95C128.761 19.3333 128.62 19.675 128.336 19.975C128.07 20.2583 127.728 20.4 127.311 20.4Z" fill="#252525"/>
</svg>
