<svg xmlns="http://www.w3.org/2000/svg" width="1024" height="768" fill="none" viewBox="0 0 1024 768"><path fill="#252525" d="M217.188 374V347.84H207.108V346H229.308V347.84H219.228V374H217.188ZM238.416 374V351.48H246.776C248.696 351.48 250.336 351.787 251.696 352.4C253.083 353.013 254.149 353.88 254.896 355C255.643 356.12 256.016 357.493 256.016 359.12C256.016 360.693 255.643 362.053 254.896 363.2C254.149 364.347 253.083 365.227 251.696 365.84C250.336 366.427 248.696 366.72 246.776 366.72H239.536L240.416 365.8V374H238.416ZM254.136 374L248.216 365.84H250.456L256.376 374H254.136ZM240.416 365.96L239.656 365.04H246.696C249.069 365.04 250.869 364.52 252.096 363.48C253.349 362.44 253.976 360.987 253.976 359.12C253.976 357.227 253.349 355.773 252.096 354.76C250.869 353.747 249.069 353.24 246.696 353.24H239.656L240.416 352.28V365.96ZM263.702 374L274.142 351.48H276.142L286.622 374H284.542L274.782 352.68H275.542L265.742 374H263.702ZM267.782 367.76L268.422 366.08H281.662L282.302 367.76H267.782ZM296.102 374V351.48H297.782L313.742 371.52H312.902V351.48H314.942V374H313.262L297.302 353.96H298.102V374H296.102ZM342.954 368.08C342.954 369.227 342.634 370.267 341.994 371.2C341.381 372.133 340.461 372.867 339.234 373.4C338.008 373.933 336.461 374.2 334.594 374.2C332.888 374.2 331.261 373.92 329.714 373.36C328.194 372.8 327.008 372.08 326.154 371.2L327.074 369.68C327.874 370.453 328.954 371.107 330.314 371.64C331.674 372.173 333.114 372.44 334.634 372.44C336.874 372.44 338.488 372.027 339.474 371.2C340.461 370.373 340.954 369.387 340.954 368.24C340.954 367.307 340.688 366.573 340.154 366.04C339.648 365.48 338.968 365.04 338.114 364.72C337.288 364.373 336.368 364.093 335.354 363.88C334.368 363.64 333.368 363.387 332.354 363.12C331.368 362.853 330.448 362.507 329.594 362.08C328.768 361.627 328.101 361.04 327.594 360.32C327.088 359.573 326.834 358.6 326.834 357.4C326.834 356.28 327.141 355.253 327.754 354.32C328.368 353.387 329.274 352.653 330.474 352.12C331.701 351.56 333.234 351.28 335.074 351.28C336.354 351.28 337.608 351.453 338.834 351.8C340.088 352.12 341.168 352.627 342.074 353.32L341.274 354.96C340.341 354.267 339.328 353.773 338.234 353.48C337.168 353.187 336.101 353.04 335.034 353.04C332.901 353.04 331.328 353.467 330.314 354.32C329.328 355.147 328.834 356.147 328.834 357.32C328.834 358.253 329.088 359 329.594 359.56C330.101 360.12 330.768 360.573 331.594 360.92C332.448 361.24 333.381 361.52 334.394 361.76C335.408 361.973 336.408 362.213 337.394 362.48C338.408 362.747 339.328 363.093 340.154 363.52C341.008 363.947 341.688 364.52 342.194 365.24C342.701 365.96 342.954 366.907 342.954 368.08ZM355.858 362.52H368.178V364.24H355.858V362.52ZM356.178 374H354.178V351.48H369.618V353.24H356.178V374ZM389.592 374.2C387.299 374.2 385.246 373.707 383.432 372.72C381.646 371.707 380.232 370.333 379.192 368.6C378.152 366.867 377.632 364.907 377.632 362.72C377.632 360.533 378.152 358.587 379.192 356.88C380.232 355.147 381.646 353.787 383.432 352.8C385.246 351.787 387.286 351.28 389.552 351.28C391.846 351.28 393.886 351.787 395.672 352.8C397.486 353.787 398.899 355.147 399.912 356.88C400.952 358.587 401.472 360.533 401.472 362.72C401.472 364.907 400.952 366.867 399.912 368.6C398.899 370.333 397.486 371.707 395.672 372.72C393.886 373.707 391.859 374.2 389.592 374.2ZM389.552 372.4C391.472 372.4 393.166 371.987 394.632 371.16C396.126 370.307 397.299 369.16 398.152 367.72C399.032 366.253 399.472 364.6 399.472 362.76C399.472 360.893 399.032 359.24 398.152 357.8C397.299 356.333 396.126 355.187 394.632 354.36C393.166 353.507 391.472 353.08 389.552 353.08C387.686 353.08 386.006 353.507 384.512 354.36C383.019 355.187 381.832 356.333 380.952 357.8C380.099 359.24 379.672 360.893 379.672 362.76C379.672 364.6 380.099 366.253 380.952 367.72C381.832 369.16 383.019 370.307 384.512 371.16C386.006 371.987 387.686 372.4 389.552 372.4ZM412.841 374V351.48H421.201C423.121 351.48 424.761 351.787 426.121 352.4C427.508 353.013 428.574 353.88 429.321 355C430.068 356.12 430.441 357.493 430.441 359.12C430.441 360.693 430.068 362.053 429.321 363.2C428.574 364.347 427.508 365.227 426.121 365.84C424.761 366.427 423.121 366.72 421.201 366.72H413.961L414.841 365.8V374H412.841ZM428.561 374L422.641 365.84H424.881L430.801 374H428.561ZM414.841 365.96L414.081 365.04H421.121C423.494 365.04 425.294 364.52 426.521 363.48C427.774 362.44 428.401 360.987 428.401 359.12C428.401 357.227 427.774 355.773 426.521 354.76C425.294 353.747 423.494 353.24 421.121 353.24H414.081L414.841 352.28V365.96ZM442.407 374V351.48H444.127L454.567 369.2H453.767L464.087 351.48H465.847V374H463.887V354.56H464.287L454.607 371.04H453.647L443.847 354.56H444.367V374H442.407ZM479.589 374V351.48H481.589V374H479.589ZM495.366 374V351.48H497.046L513.006 371.52H512.166V351.48H514.206V374H512.526L496.566 353.96H497.366V374H495.366ZM545.818 371.32C545.125 371.933 544.338 372.467 543.458 372.92C542.605 373.347 541.685 373.667 540.698 373.88C539.712 374.093 538.685 374.2 537.618 374.2C535.298 374.2 533.232 373.707 531.418 372.72C529.605 371.707 528.165 370.333 527.098 368.6C526.058 366.867 525.538 364.907 525.538 362.72C525.538 360.533 526.058 358.587 527.098 356.88C528.165 355.147 529.592 353.787 531.378 352.8C533.192 351.787 535.245 351.28 537.538 351.28C539.272 351.28 540.845 351.547 542.258 352.08C543.672 352.613 544.885 353.4 545.898 354.44L544.618 355.8C543.658 354.84 542.578 354.147 541.378 353.72C540.205 353.293 538.938 353.08 537.578 353.08C535.685 353.08 533.978 353.507 532.458 354.36C530.938 355.187 529.738 356.333 528.858 357.8C528.005 359.24 527.578 360.88 527.578 362.72C527.578 364.56 528.018 366.213 528.898 367.68C529.778 369.147 530.965 370.307 532.458 371.16C533.978 371.987 535.698 372.4 537.618 372.4C538.978 372.4 540.245 372.2 541.418 371.8C542.618 371.373 543.698 370.707 544.658 369.8L545.818 371.32ZM543.858 371.32V362.8H545.818V371.32H543.858ZM573.867 374V351.48H575.867V374H573.867ZM589.644 374V351.48H598.764C601.297 351.48 603.471 351.96 605.284 352.92C607.097 353.88 608.497 355.2 609.484 356.88C610.471 358.56 610.964 360.507 610.964 362.72C610.964 364.933 610.471 366.893 609.484 368.6C608.497 370.307 607.097 371.64 605.284 372.6C603.471 373.533 601.297 374 598.764 374H589.644ZM591.644 372.28H598.684C600.871 372.28 602.724 371.88 604.244 371.08C605.791 370.253 606.964 369.12 607.764 367.68C608.564 366.24 608.964 364.587 608.964 362.72C608.964 360.853 608.564 359.213 607.764 357.8C606.964 356.36 605.791 355.24 604.244 354.44C602.724 353.64 600.871 353.24 598.684 353.24H591.644V372.28ZM623.975 361.72H636.335V363.44H623.975V361.72ZM624.335 372.28H638.255V374H622.335V351.48H637.775V353.24H624.335V372.28ZM645.394 374L655.834 351.48H657.834L668.314 374H666.234L656.474 352.68H657.234L647.434 374H645.394ZM649.474 367.76L650.114 366.08H663.354L663.994 367.76H649.474ZM692.034 368.08C692.034 369.227 691.714 370.267 691.074 371.2C690.461 372.133 689.541 372.867 688.314 373.4C687.087 373.933 685.541 374.2 683.674 374.2C681.967 374.2 680.341 373.92 678.794 373.36C677.274 372.8 676.087 372.08 675.234 371.2L676.154 369.68C676.954 370.453 678.034 371.107 679.394 371.64C680.754 372.173 682.194 372.44 683.714 372.44C685.954 372.44 687.567 372.027 688.554 371.2C689.541 370.373 690.034 369.387 690.034 368.24C690.034 367.307 689.767 366.573 689.234 366.04C688.727 365.48 688.047 365.04 687.194 364.72C686.367 364.373 685.447 364.093 684.434 363.88C683.447 363.64 682.447 363.387 681.434 363.12C680.447 362.853 679.527 362.507 678.674 362.08C677.847 361.627 677.181 361.04 676.674 360.32C676.167 359.573 675.914 358.6 675.914 357.4C675.914 356.28 676.221 355.253 676.834 354.32C677.447 353.387 678.354 352.653 679.554 352.12C680.781 351.56 682.314 351.28 684.154 351.28C685.434 351.28 686.687 351.453 687.914 351.8C689.167 352.12 690.247 352.627 691.154 353.32L690.354 354.96C689.421 354.267 688.407 353.773 687.314 353.48C686.247 353.187 685.181 353.04 684.114 353.04C681.981 353.04 680.407 353.467 679.394 354.32C678.407 355.147 677.914 356.147 677.914 357.32C677.914 358.253 678.167 359 678.674 359.56C679.181 360.12 679.847 360.573 680.674 360.92C681.527 361.24 682.461 361.52 683.474 361.76C684.487 361.973 685.487 362.213 686.474 362.48C687.487 362.747 688.407 363.093 689.234 363.52C690.087 363.947 690.767 364.52 691.274 365.24C691.781 365.96 692.034 366.907 692.034 368.08ZM718.332 374V351.48H720.332V374H718.332ZM734.108 374V351.48H735.788L751.748 371.52H750.908V351.48H752.948V374H751.268L735.308 353.96H736.108V374H734.108ZM770.561 374V353.24H762.401V351.48H780.721V353.24H772.561V374H770.561ZM799.283 374.2C796.989 374.2 794.936 373.707 793.123 372.72C791.336 371.707 789.923 370.333 788.883 368.6C787.843 366.867 787.323 364.907 787.323 362.72C787.323 360.533 787.843 358.587 788.883 356.88C789.923 355.147 791.336 353.787 793.123 352.8C794.936 351.787 796.976 351.28 799.243 351.28C801.536 351.28 803.576 351.787 805.363 352.8C807.176 353.787 808.589 355.147 809.603 356.88C810.643 358.587 811.163 360.533 811.163 362.72C811.163 364.907 810.643 366.867 809.603 368.6C808.589 370.333 807.176 371.707 805.363 372.72C803.576 373.707 801.549 374.2 799.283 374.2ZM799.243 372.4C801.163 372.4 802.856 371.987 804.323 371.16C805.816 370.307 806.989 369.16 807.843 367.72C808.723 366.253 809.163 364.6 809.163 362.76C809.163 360.893 808.723 359.24 807.843 357.8C806.989 356.333 805.816 355.187 804.323 354.36C802.856 353.507 801.163 353.08 799.243 353.08C797.376 353.08 795.696 353.507 794.203 354.36C792.709 355.187 791.523 356.333 790.643 357.8C789.789 359.24 789.363 360.893 789.363 362.76C789.363 364.6 789.789 366.253 790.643 367.72C791.523 369.16 792.709 370.307 794.203 371.16C795.696 371.987 797.376 372.4 799.243 372.4ZM212.504 417.08C212.504 418.227 212.184 419.267 211.544 420.2C210.931 421.133 210.011 421.867 208.784 422.4C207.558 422.933 206.011 423.2 204.144 423.2C202.438 423.2 200.811 422.92 199.264 422.36C197.744 421.8 196.558 421.08 195.704 420.2L196.624 418.68C197.424 419.453 198.504 420.107 199.864 420.64C201.224 421.173 202.664 421.44 204.184 421.44C206.424 421.44 208.038 421.027 209.024 420.2C210.011 419.373 210.504 418.387 210.504 417.24C210.504 416.307 210.238 415.573 209.704 415.04C209.198 414.48 208.518 414.04 207.664 413.72C206.838 413.373 205.918 413.093 204.904 412.88C203.918 412.64 202.918 412.387 201.904 412.12C200.918 411.853 199.998 411.507 199.144 411.08C198.318 410.627 197.651 410.04 197.144 409.32C196.638 408.573 196.384 407.6 196.384 406.4C196.384 405.28 196.691 404.253 197.304 403.32C197.918 402.387 198.824 401.653 200.024 401.12C201.251 400.56 202.784 400.28 204.624 400.28C205.904 400.28 207.158 400.453 208.384 400.8C209.638 401.12 210.718 401.627 211.624 402.32L210.824 403.96C209.891 403.267 208.878 402.773 207.784 402.48C206.718 402.187 205.651 402.04 204.584 402.04C202.451 402.04 200.878 402.467 199.864 403.32C198.878 404.147 198.384 405.147 198.384 406.32C198.384 407.253 198.638 408 199.144 408.56C199.651 409.12 200.318 409.573 201.144 409.92C201.998 410.24 202.931 410.52 203.944 410.76C204.958 410.973 205.958 411.213 206.944 411.48C207.958 411.747 208.878 412.093 209.704 412.52C210.558 412.947 211.238 413.52 211.744 414.24C212.251 414.96 212.504 415.907 212.504 417.08ZM233.208 423.2C230.942 423.2 228.902 422.707 227.088 421.72C225.302 420.707 223.888 419.333 222.848 417.6C221.808 415.867 221.288 413.907 221.288 411.72C221.288 409.533 221.808 407.587 222.848 405.88C223.888 404.147 225.302 402.787 227.088 401.8C228.902 400.787 230.942 400.28 233.208 400.28C234.888 400.28 236.422 400.547 237.808 401.08C239.222 401.613 240.435 402.4 241.448 403.44L240.168 404.8C239.208 403.84 238.142 403.147 236.968 402.72C235.822 402.293 234.582 402.08 233.248 402.08C231.355 402.08 229.662 402.507 228.168 403.36C226.675 404.187 225.488 405.333 224.608 406.8C223.755 408.24 223.328 409.88 223.328 411.72C223.328 413.56 223.755 415.213 224.608 416.68C225.488 418.147 226.675 419.307 228.168 420.16C229.662 420.987 231.355 421.4 233.248 421.4C234.582 421.4 235.822 421.187 236.968 420.76C238.142 420.333 239.208 419.64 240.168 418.68L241.448 420C240.435 421.067 239.222 421.867 237.808 422.4C236.395 422.933 234.862 423.2 233.208 423.2ZM247.334 423L257.774 400.48H259.774L270.254 423H268.174L258.414 401.68H259.174L249.374 423H247.334ZM251.414 416.76L252.054 415.08H265.294L265.934 416.76H251.414ZM279.735 423V400.48H281.735V421.28H294.695V423H279.735ZM300.02 423L310.46 400.48H312.46L322.94 423H320.86L311.1 401.68H311.86L302.06 423H300.02ZM304.1 416.76L304.74 415.08H317.98L318.62 416.76H304.1ZM332.421 423V400.48H342.061C344.567 400.48 346.514 400.987 347.901 402C349.314 402.987 350.021 404.4 350.021 406.24C350.021 408.08 349.381 409.48 348.101 410.44C346.821 411.4 345.154 411.88 343.101 411.88L343.661 411.16C346.114 411.16 347.994 411.667 349.301 412.68C350.607 413.667 351.261 415.12 351.261 417.04C351.261 418.933 350.541 420.4 349.101 421.44C347.687 422.48 345.554 423 342.701 423H332.421ZM334.421 421.36H342.701C344.807 421.36 346.421 421 347.541 420.28C348.661 419.56 349.221 418.427 349.221 416.88C349.221 415.307 348.661 414.173 347.541 413.48C346.421 412.76 344.807 412.4 342.701 412.4H334.061V410.8H341.981C343.901 410.8 345.381 410.427 346.421 409.68C347.487 408.933 348.021 407.853 348.021 406.44C348.021 405 347.487 403.92 346.421 403.2C345.381 402.48 343.901 402.12 341.981 402.12H334.421V421.36ZM362.533 423V400.48H364.533V421.28H377.493V423H362.533ZM388.739 410.72H401.099V412.44H388.739V410.72ZM389.099 421.28H403.019V423H387.099V400.48H402.539V402.24H389.099V421.28ZM434.511 423L426.791 400.48H428.911L436.191 421.88H435.111L442.631 400.48H444.551L451.991 421.88H450.991L458.311 400.48H460.311L452.591 423H450.471L443.271 402.52H443.831L436.671 423H434.511ZM472.982 410.72H485.342V412.44H472.982V410.72ZM473.342 421.28H487.262V423H471.342V400.48H486.782V402.24H473.342V421.28ZM498.682 423V400.48H508.322C510.828 400.48 512.775 400.987 514.162 402C515.575 402.987 516.282 404.4 516.282 406.24C516.282 408.08 515.642 409.48 514.362 410.44C513.082 411.4 511.415 411.88 509.362 411.88L509.922 411.16C512.375 411.16 514.255 411.667 515.562 412.68C516.868 413.667 517.522 415.12 517.522 417.04C517.522 418.933 516.802 420.4 515.362 421.44C513.948 422.48 511.815 423 508.962 423H498.682ZM500.682 421.36H508.962C511.068 421.36 512.682 421 513.802 420.28C514.922 419.56 515.482 418.427 515.482 416.88C515.482 415.307 514.922 414.173 513.802 413.48C512.682 412.76 511.068 412.4 508.962 412.4H500.322V410.8H508.242C510.162 410.8 511.642 410.427 512.682 409.68C513.748 408.933 514.282 407.853 514.282 406.44C514.282 405 513.748 403.92 512.682 403.2C511.642 402.48 510.162 402.12 508.242 402.12H500.682V421.36ZM545.507 410.72H557.867V412.44H545.507V410.72ZM545.867 421.28H559.787V423H543.867V400.48H559.307V402.24H545.867V421.28ZM567.175 423L576.535 410.68V412.16L567.775 400.48H570.055L577.575 410.48H576.735L584.215 400.48H586.495L577.815 412V410.8L587.055 423H584.735L576.695 412.32H577.535L569.495 423H567.175ZM597.139 423V400.48H605.499C607.419 400.48 609.059 400.787 610.419 401.4C611.806 402.013 612.873 402.88 613.619 404C614.366 405.12 614.739 406.493 614.739 408.12C614.739 409.72 614.366 411.093 613.619 412.24C612.873 413.387 611.806 414.267 610.419 414.88C609.059 415.467 607.419 415.76 605.499 415.76H598.259L599.139 414.8V423H597.139ZM599.139 414.96L598.379 414.04H605.419C607.793 414.04 609.593 413.52 610.819 412.48C612.073 411.44 612.699 409.987 612.699 408.12C612.699 406.227 612.073 404.773 610.819 403.76C609.593 402.747 607.793 402.24 605.419 402.24H598.379L599.139 401.28V414.96ZM628.072 410.72H640.432V412.44H628.072V410.72ZM628.432 421.28H642.352V423H626.432V400.48H641.872V402.24H628.432V421.28ZM653.771 423V400.48H662.131C664.051 400.48 665.691 400.787 667.051 401.4C668.437 402.013 669.504 402.88 670.251 404C670.997 405.12 671.371 406.493 671.371 408.12C671.371 409.693 670.997 411.053 670.251 412.2C669.504 413.347 668.437 414.227 667.051 414.84C665.691 415.427 664.051 415.72 662.131 415.72H654.891L655.771 414.8V423H653.771ZM669.491 423L663.571 414.84H665.811L671.731 423H669.491ZM655.771 414.96L655.011 414.04H662.051C664.424 414.04 666.224 413.52 667.451 412.48C668.704 411.44 669.331 409.987 669.331 408.12C669.331 406.227 668.704 404.773 667.451 403.76C666.224 402.747 664.424 402.24 662.051 402.24H655.011L655.771 401.28V414.96ZM683.336 423V400.48H685.336V423H683.336ZM700.753 410.72H713.113V412.44H700.753V410.72ZM701.113 421.28H715.033V423H699.113V400.48H714.553V402.24H701.113V421.28ZM726.452 423V400.48H728.132L744.092 420.52H743.252V400.48H745.292V423H743.612L727.652 402.96H728.452V423H726.452ZM768.544 423.2C766.278 423.2 764.238 422.707 762.424 421.72C760.638 420.707 759.224 419.333 758.184 417.6C757.144 415.867 756.624 413.907 756.624 411.72C756.624 409.533 757.144 407.587 758.184 405.88C759.224 404.147 760.638 402.787 762.424 401.8C764.238 400.787 766.278 400.28 768.544 400.28C770.224 400.28 771.758 400.547 773.144 401.08C774.558 401.613 775.771 402.4 776.784 403.44L775.504 404.8C774.544 403.84 773.478 403.147 772.304 402.72C771.158 402.293 769.918 402.08 768.584 402.08C766.691 402.08 764.998 402.507 763.504 403.36C762.011 404.187 760.824 405.333 759.944 406.8C759.091 408.24 758.664 409.88 758.664 411.72C758.664 413.56 759.091 415.213 759.944 416.68C760.824 418.147 762.011 419.307 763.504 420.16C764.998 420.987 766.691 421.4 768.584 421.4C769.918 421.4 771.158 421.187 772.304 420.76C773.478 420.333 774.544 419.64 775.504 418.68L776.784 420C775.771 421.067 774.558 421.867 773.144 422.4C771.731 422.933 770.198 423.2 768.544 423.2ZM789.332 410.72H801.692V412.44H789.332V410.72ZM789.692 421.28H803.612V423H787.692V400.48H803.132V402.24H789.692V421.28ZM829.272 417.08C829.272 418.227 828.952 419.267 828.312 420.2C827.698 421.133 826.778 421.867 825.552 422.4C824.325 422.933 822.778 423.2 820.912 423.2C819.205 423.2 817.578 422.92 816.032 422.36C814.512 421.8 813.325 421.08 812.472 420.2L813.392 418.68C814.192 419.453 815.272 420.107 816.632 420.64C817.992 421.173 819.432 421.44 820.952 421.44C823.192 421.44 824.805 421.027 825.792 420.2C826.778 419.373 827.272 418.387 827.272 417.24C827.272 416.307 827.005 415.573 826.472 415.04C825.965 414.48 825.285 414.04 824.432 413.72C823.605 413.373 822.685 413.093 821.672 412.88C820.685 412.64 819.685 412.387 818.672 412.12C817.685 411.853 816.765 411.507 815.912 411.08C815.085 410.627 814.418 410.04 813.912 409.32C813.405 408.573 813.152 407.6 813.152 406.4C813.152 405.28 813.458 404.253 814.072 403.32C814.685 402.387 815.592 401.653 816.792 401.12C818.018 400.56 819.552 400.28 821.392 400.28C822.672 400.28 823.925 400.453 825.152 400.8C826.405 401.12 827.485 401.627 828.392 402.32L827.592 403.96C826.658 403.267 825.645 402.773 824.552 402.48C823.485 402.187 822.418 402.04 821.352 402.04C819.218 402.04 817.645 402.467 816.632 403.32C815.645 404.147 815.152 405.147 815.152 406.32C815.152 407.253 815.405 408 815.912 408.56C816.418 409.12 817.085 409.573 817.912 409.92C818.765 410.24 819.698 410.52 820.712 410.76C821.725 410.973 822.725 411.213 823.712 411.48C824.725 411.747 825.645 412.093 826.472 412.52C827.325 412.947 828.005 413.52 828.512 414.24C829.018 414.96 829.272 415.907 829.272 417.08Z"/></svg>